<?xml version="1.0" ?>
<svg contentScriptType="text/ecmascript" contentStyleType="text/css" enable-background="new 0 0 2048 2048"
     height="16px" id="Layer_1" preserveAspectRatio="xMidYMid meet" version="1.1" viewBox="0.0 0 1536.0 2048"
     width="16px" xml:space="preserve" xmlns="http://www.w3.org/2000/svg"
     zoomAndPan="magnify"><path d="M768,256c139.333,0,267.833,34.333,385.5,103s210.833,161.833,279.5,279.5s103,246.167,103,385.5s-34.333,267.833-103,385.5  s-161.833,210.833-279.5,279.5S907.333,1792,768,1792s-267.833-34.333-385.5-103S171.667,1527.167,103,1409.5S0,1163.333,0,1024  s34.333-267.833,103-385.5S264.833,427.667,382.5,359S628.667,256,768,256z M896,1503v-190c0-9.333-3-17.167-9-23.5  s-13.333-9.5-22-9.5H673c-8.667,0-16.333,3.333-23,10s-10,14.333-10,23v190c0,8.667,3.333,16.333,10,23s14.333,10,23,10h192  c8.667,0,16-3.167,22-9.5S896,1512.333,896,1503z M894,1159l18-621c0-8-3.333-14-10-18c-6.667-5.333-14.667-8-24-8H658  c-9.333,0-17.333,2.667-24,8c-6.667,4-10,10-10,18l17,621c0,6.667,3.333,12.5,10,17.5s14.667,7.5,24,7.5h185  c9.333,0,17.167-2.5,23.5-7.5S893.333,1165.667,894,1159z"/></svg>